<?xml version="1.0" encoding="utf-8"?>
<!-- Generator: Adobe Illustrator 16.0.0, SVG Export Plug-In . SVG Version: 6.00 Build 0)  -->
<!DOCTYPE svg PUBLIC "-//W3C//DTD SVG 1.1//EN" "http://www.w3.org/Graphics/SVG/1.1/DTD/svg11.dtd">
<svg version="1.1" id="Layer_1" xmlns="http://www.w3.org/2000/svg" xmlns:xlink="http://www.w3.org/1999/xlink" x="0px" y="0px"
	 width="24px" height="24px" viewBox="0 0 24 24" enable-background="new 0 0 24 24" xml:space="preserve">
<path fill="#909090" d="M6.982,2C6.194,2,6,2.32,6,3.108v17.49C6,21.381,6.305,22,7.094,22h9.859C17.744,22,18,21.783,18,21.002
	V2.996C18.002,2.208,17.805,2,17.016,2H6.982z M11,20h2v1h-2 M16.018,19H7.982C7.525,19,7,18.361,7,17.906V4.922
	C7,4.467,7.461,4,7.918,4h8.035C16.405,4,17,4.481,17,4.936c0,0,0,12.416,0,12.986C17,18.491,16.471,19,16.018,19z"/>
</svg>
