<?xml version="1.0" encoding="utf-8"?>
<!-- Generator: Adobe Illustrator 16.0.0, SVG Export Plug-In . SVG Version: 6.00 Build 0)  -->
<!DOCTYPE svg PUBLIC "-//W3C//DTD SVG 1.1//EN" "http://www.w3.org/Graphics/SVG/1.1/DTD/svg11.dtd">
<svg version="1.1" id="Layer_1" xmlns="http://www.w3.org/2000/svg" xmlns:xlink="http://www.w3.org/1999/xlink" x="0px" y="0px"
	 width="24px" height="24px" viewBox="0 0 24 24" enable-background="new 0 0 24 24" xml:space="preserve">
<path fill="#909090" d="M2,2C1.217,2,1,2.354,1,3.125v14C1,17.896,1.435,18,2.217,18h5.369c0.467,0,0.911,0.539,0.911,1l0,0
	c0,0.461-0.115,1.047-0.583,1.047c0,0-1.417,0.463-1.417,0.953l0,0c0,0.49,0.403,1,0.901,1h9.174c0.498,0,0.926-0.51,0.926-1l0,0
	c0-0.49-1.145-0.953-1.145-0.953c-0.478-0.07-0.769-0.586-0.769-1.047l0,0c0-0.461,0.349-1,0.812-1h5.597c0.782,0,1-0.229,1-1V2.875
	C22.993,2.25,22.525,2.035,22,2H2z M21.994,15c0,0.277-0.717,1-1,1H3c-0.283,0-1-0.723-1-1V5c0-0.278,0.717-1,1-1h17.992
	c0.283,0,1,0.722,1,1v10H21.994z"/>
</svg>
