<?xml version="1.0" encoding="utf-8"?>
<!-- Generator: Adobe Illustrator 16.0.0, SVG Export Plug-In . SVG Version: 6.00 Build 0)  -->
<!DOCTYPE svg PUBLIC "-//W3C//DTD SVG 1.1//EN" "http://www.w3.org/Graphics/SVG/1.1/DTD/svg11.dtd">
<svg version="1.1" id="Layer_1" xmlns="http://www.w3.org/2000/svg" xmlns:xlink="http://www.w3.org/1999/xlink" x="0px" y="0px"
	 width="40px" height="40px" viewBox="0 0 40 40" enable-background="new 0 0 40 40" xml:space="preserve">
<path fill="#FFFFFF" d="M29.629,13.332l2.873,1.933l-2.875,1.934l1.922,2.895l-3.387,0.678l0.676,3.418l-2.08-0.42l4.576,7.998
	l-5.256-1.418l-1.406,5.301l-4.549-7.949L20,27.887l-0.049-0.074l-4.483,7.84L14.06,30.35l-5.255,1.42l4.594-8.035l-2.24,0.451
	l0.677-3.418l-3.387-0.675l1.921-2.896l-2.871-1.932l2.872-1.933l-1.922-2.895l3.388-0.677L11.16,6.341l3.386,0.684l0.671-3.419
	l2.869,1.94L20,2.646l1.915,2.899l2.869-1.938l0.67,3.418l3.385-0.684L28.163,9.76l3.389,0.677L29.629,13.332z M24.344,33.137
	l1.055-3.977l3.943,1.061l-3.838-6.709l-0.049-0.01l-0.672,3.42l-2.867-1.939l-1.197,1.814L24.344,33.137z M10.798,30.225
	l3.942-1.062l1.055,3.977l3.562-6.227l-1.272-1.928l-2.87,1.939l-0.645-3.295L10.798,30.225z M20,8.47
	c-3.717,0-6.731,3.043-6.731,6.795c0,3.752,3.015,6.793,6.731,6.793c3.715,0,6.73-3.042,6.73-6.793
	C26.73,11.513,23.717,8.47,20,8.47z M20,20.119c-2.656,0-4.808-2.173-4.808-4.854s2.15-4.854,4.808-4.854s4.809,2.172,4.809,4.854
	C24.809,17.946,22.657,20.119,20,20.119z"/>
</svg>
